<svg width="24" height="24" viewBox="0 0 24 24" fill="none" xmlns="http://www.w3.org/2000/svg">
<circle cx="12" cy="12" r="12" fill="#0081C9"/>
<path fill-rule="evenodd" clip-rule="evenodd" d="M3.30984 5.97647C2.66663 6.61968 2.66663 7.65493 2.66663 9.72541V15.4596C2.66663 17.5301 2.66663 18.5653 3.30984 19.2086C3.95306 19.8518 4.9883 19.8518 7.05878 19.8518H16.9411C19.0116 19.8518 20.0469 19.8518 20.6901 19.2086C21.3333 18.5653 21.3333 17.5301 21.3333 15.4596V9.72541C21.3333 7.65493 21.3333 6.61968 20.6901 5.97647C20.0469 5.33325 19.0116 5.33325 16.9411 5.33325H7.05878C4.9883 5.33325 3.95306 5.33325 3.30984 5.97647ZM6.1837 8.87242C5.84732 8.64816 5.39282 8.73906 5.16857 9.07545C4.94431 9.41184 5.03521 9.86633 5.37159 10.0906L11.1878 13.968C11.6795 14.2959 12.3202 14.2959 12.812 13.968L18.6281 10.0906C18.9645 9.86633 19.0554 9.41184 18.8312 9.07545C18.6069 8.73906 18.1524 8.64816 17.816 8.87242L11.9999 12.7499L6.1837 8.87242Z" fill="white"/>
</svg>
