<svg width="28" height="28" viewBox="0 0 28 28" fill="none" xmlns="http://www.w3.org/2000/svg">
<g clip-path="url(#clip0_3_2852)">
<path d="M26.0312 0.4375H1.96875C1.09375 0.4375 0.4375 1.1375 0.4375 1.96875V26.0312C0.4375 26.9062 1.1375 27.5625 1.96875 27.5625H14.9187V17.0188H11.4187V12.95H14.9187V9.93125C14.9187 6.43125 17.0187 4.50625 20.1687 4.50625C21.2188 4.50625 22.2687 4.55 23.3188 4.68125V8.3125H21.2188C19.5562 8.3125 19.2063 9.1 19.2063 10.2812V12.8625H23.1875L22.6187 16.975H19.1187V27.3875H26.0312C26.9062 27.3875 27.5625 26.7312 27.5625 25.8562V1.96875C27.5187 1.09375 26.8188 0.4375 26.0312 0.4375Z" fill="#3D3D3D"/>
</g>
<defs>
<clipPath id="clip0_3_2852">
<rect width="28" height="28" fill="white"/>
</clipPath>
</defs>
</svg>
