<svg width="28" height="28" viewBox="0 0 28 28" fill="none" xmlns="http://www.w3.org/2000/svg">
<g clip-path="url(#clip0_3_2853)">
<path d="M25.5938 0.4375H2.45001C1.35626 0.4375 0.481262 1.3125 0.481262 2.40625V25.5938C0.481262 26.6437 1.35626 27.5625 2.45001 27.5625H25.5063C26.6 27.5625 27.475 26.6875 27.475 25.5938V2.3625C27.5625 1.3125 26.6875 0.4375 25.5938 0.4375ZM8.48751 23.4937H4.50626V10.5875H8.48751V23.4937ZM6.47501 8.79375C5.16251 8.79375 4.15626 7.74375 4.15626 6.475C4.15626 5.20625 5.20626 4.15625 6.47501 4.15625C7.74376 4.15625 8.79376 5.20625 8.79376 6.475C8.79376 7.74375 7.83126 8.79375 6.47501 8.79375ZM23.5813 23.4937H19.6V17.2375C19.6 15.75 19.5563 13.7812 17.5 13.7812C15.4 13.7812 15.0938 15.4437 15.0938 17.1062V23.4937H11.1125V10.5875H15.0063V12.3812H15.05C15.6188 11.3312 16.8875 10.2812 18.8563 10.2812C22.925 10.2812 23.6688 12.9062 23.6688 16.4937V23.4937H23.5813Z" fill="#3D3D3D"/>
</g>
<defs>
<clipPath id="clip0_3_2853">
<rect width="28" height="28" fill="white"/>
</clipPath>
</defs>
</svg>
