<svg width="128" height="28" viewBox="0 0 128 28" fill="none" xmlns="http://www.w3.org/2000/svg">
<path d="M10.73 22.34C8.69 22.34 6.888 22.0113 5.324 21.354C3.78267 20.674 2.57 19.688 1.686 18.396C0.802 17.0813 0.36 15.472 0.36 13.568V0.103998H6.752V12.888C6.752 15.5627 8.078 16.9 10.73 16.9C11.9993 16.9 12.974 16.5713 13.654 15.914C14.334 15.2567 14.674 14.248 14.674 12.888V0.103998H21.066V13.568C21.066 15.472 20.624 17.0813 19.74 18.396C18.8787 19.688 17.666 20.674 16.102 21.354C14.5607 22.0113 12.77 22.34 10.73 22.34ZM23.9714 22V0.103998H30.3634V22H23.9714Z" fill="#0081C9"/>
<path d="M33.4003 22L41.7643 0.103998H45.9123L54.2083 22H50.4003L48.2243 16.356H39.4183L37.2423 22H33.4003ZM39.9963 13.5H47.6123L43.8043 3.47L39.9963 13.5ZM57.8529 22V5.884H61.2529L61.4229 7.584C62.1483 7.01733 63.0096 6.54133 64.0069 6.156C65.0269 5.748 66.1489 5.544 67.3729 5.544C69.4583 5.544 70.9769 6.03133 71.9289 7.006C72.8809 7.98067 73.3569 9.49933 73.3569 11.562V22H69.6849V11.732C69.6849 10.4853 69.4243 9.61267 68.9029 9.114C68.4043 8.61533 67.4523 8.366 66.0469 8.366C65.2083 8.366 64.3809 8.536 63.5649 8.876C62.7716 9.216 62.1029 9.658 61.5589 10.202V22H57.8529ZM84.0372 27.984C82.8359 27.984 81.6345 27.9047 80.4332 27.746C79.2319 27.61 78.2119 27.3947 77.3732 27.1V24.244C78.2799 24.5387 79.3225 24.7653 80.5012 24.924C81.6799 25.0827 82.8019 25.162 83.8672 25.162C85.4992 25.162 86.6892 25.0713 87.4372 24.89C88.1852 24.7087 88.5592 24.3007 88.5592 23.666C88.5592 23.19 88.3779 22.85 88.0152 22.646C87.6525 22.4647 86.9612 22.374 85.9412 22.374H81.5892C78.6652 22.374 77.2032 21.3427 77.2032 19.28C77.2032 18.6227 77.3959 18.0107 77.7812 17.444C78.1665 16.8773 78.7785 16.4467 79.6172 16.152C78.6879 15.6987 77.9965 15.0753 77.5432 14.282C77.1125 13.4887 76.8972 12.5367 76.8972 11.426C76.8972 9.36333 77.5092 7.86733 78.7332 6.938C79.9799 6.00867 81.8385 5.544 84.3092 5.544C84.8305 5.544 85.3745 5.58933 85.9412 5.68C86.5079 5.748 86.9499 5.816 87.2672 5.884H93.1832L93.0812 8.298H90.3612C90.7919 8.66067 91.1092 9.114 91.3132 9.658C91.5172 10.202 91.6192 10.7913 91.6192 11.426C91.6192 13.1487 91.0979 14.5087 90.0552 15.506C89.0125 16.4807 87.4372 16.968 85.3292 16.968C84.9665 16.968 84.6265 16.9567 84.3092 16.934C84.0145 16.8887 83.6859 16.8433 83.3232 16.798C82.6432 16.866 82.0312 17.0473 81.4872 17.342C80.9432 17.6367 80.6712 18.0333 80.6712 18.532C80.6712 18.872 80.8072 19.1213 81.0792 19.28C81.3512 19.416 81.8045 19.484 82.4392 19.484H86.9612C88.5705 19.484 89.8059 19.8353 90.6672 20.538C91.5512 21.218 91.9932 22.2153 91.9932 23.53C91.9932 25.1167 91.3019 26.25 89.9192 26.93C88.5592 27.6327 86.5985 27.984 84.0372 27.984ZM84.3092 14.622C85.7825 14.622 86.8025 14.3727 87.3692 13.874C87.9585 13.3753 88.2532 12.5253 88.2532 11.324C88.2532 10.1227 87.9585 9.25 87.3692 8.706C86.8025 8.162 85.7825 7.89 84.3092 7.89C82.9265 7.89 81.9179 8.15067 81.2832 8.672C80.6485 9.19333 80.3312 10.0773 80.3312 11.324C80.3312 12.48 80.6259 13.3187 81.2152 13.84C81.8272 14.3613 82.8585 14.622 84.3092 14.622ZM102.365 27.984C101.164 27.984 99.9626 27.9047 98.7613 27.746C97.56 27.61 96.54 27.3947 95.7013 27.1V24.244C96.608 24.5387 97.6506 24.7653 98.8293 24.924C100.008 25.0827 101.13 25.162 102.195 25.162C103.827 25.162 105.017 25.0713 105.765 24.89C106.513 24.7087 106.887 24.3007 106.887 23.666C106.887 23.19 106.706 22.85 106.343 22.646C105.981 22.4647 105.289 22.374 104.269 22.374H99.9173C96.9933 22.374 95.5313 21.3427 95.5313 19.28C95.5313 18.6227 95.724 18.0107 96.1093 17.444C96.4946 16.8773 97.1066 16.4467 97.9453 16.152C97.016 15.6987 96.3246 15.0753 95.8713 14.282C95.4406 13.4887 95.2253 12.5367 95.2253 11.426C95.2253 9.36333 95.8373 7.86733 97.0613 6.938C98.308 6.00867 100.167 5.544 102.637 5.544C103.159 5.544 103.703 5.58933 104.269 5.68C104.836 5.748 105.278 5.816 105.595 5.884H111.511L111.409 8.298H108.689C109.12 8.66067 109.437 9.114 109.641 9.658C109.845 10.202 109.947 10.7913 109.947 11.426C109.947 13.1487 109.426 14.5087 108.383 15.506C107.341 16.4807 105.765 16.968 103.657 16.968C103.295 16.968 102.955 16.9567 102.637 16.934C102.343 16.8887 102.014 16.8433 101.651 16.798C100.971 16.866 100.359 17.0473 99.8153 17.342C99.2713 17.6367 98.9993 18.0333 98.9993 18.532C98.9993 18.872 99.1353 19.1213 99.4073 19.28C99.6793 19.416 100.133 19.484 100.767 19.484H105.289C106.899 19.484 108.134 19.8353 108.995 20.538C109.879 21.218 110.321 22.2153 110.321 23.53C110.321 25.1167 109.63 26.25 108.247 26.93C106.887 27.6327 104.927 27.984 102.365 27.984ZM102.637 14.622C104.111 14.622 105.131 14.3727 105.697 13.874C106.287 13.3753 106.581 12.5253 106.581 11.324C106.581 10.1227 106.287 9.25 105.697 8.706C105.131 8.162 104.111 7.89 102.637 7.89C101.255 7.89 100.246 8.15067 99.6113 8.672C98.9766 9.19333 98.6593 10.0773 98.6593 11.324C98.6593 12.48 98.954 13.3187 99.5433 13.84C100.155 14.3613 101.187 14.622 102.637 14.622ZM118.334 22.34C117.314 22.34 116.362 22.1587 115.478 21.796C114.617 21.4333 113.925 20.8893 113.404 20.164C112.883 19.416 112.622 18.498 112.622 17.41C112.622 15.8687 113.143 14.6333 114.186 13.704C115.251 12.752 116.883 12.276 119.082 12.276H124.25V11.562C124.25 10.7913 124.125 10.1793 123.876 9.726C123.649 9.27267 123.219 8.944 122.584 8.74C121.972 8.536 121.065 8.434 119.864 8.434C117.96 8.434 116.181 8.71733 114.526 9.284V6.53C115.251 6.23533 116.135 5.99733 117.178 5.816C118.221 5.63467 119.343 5.544 120.544 5.544C122.901 5.544 124.692 6.02 125.916 6.972C127.163 7.924 127.786 9.47667 127.786 11.63V22H124.624L124.386 20.368C123.729 21.0027 122.913 21.49 121.938 21.83C120.986 22.17 119.785 22.34 118.334 22.34ZM119.32 19.688C120.431 19.688 121.394 19.5067 122.21 19.144C123.049 18.7587 123.729 18.2487 124.25 17.614V14.792H119.15C118.062 14.792 117.269 15.0073 116.77 15.438C116.294 15.846 116.056 16.4807 116.056 17.342C116.056 18.1807 116.339 18.7813 116.906 19.144C117.473 19.5067 118.277 19.688 119.32 19.688Z" fill="black"/>
</svg>
