<svg width="24" height="24" viewBox="0 0 24 24" fill="none" xmlns="http://www.w3.org/2000/svg">
<path d="M2.66663 21.3334L3.98595 16.5425C3.17029 15.1363 2.7424 13.5438 2.74686 11.9158C2.74686 6.8144 6.91877 2.66675 12.0401 2.66675C14.5272 2.66675 16.8627 3.62936 18.6144 5.37714C20.3705 7.12492 21.3377 9.44939 21.3333 11.9202C21.3333 17.0216 17.1614 21.1693 12.0356 21.1693H12.0312C10.4756 21.1693 8.94679 20.7789 7.58735 20.0425L2.66663 21.3334ZM7.82358 18.3702L8.10438 18.5387C9.28999 19.2396 10.6494 19.6078 12.0356 19.6122H12.0401C16.2967 19.6122 19.7644 16.1655 19.7644 11.9247C19.7644 9.8708 18.9621 7.94115 17.5046 6.48614C16.0471 5.03113 14.1037 4.23265 12.0401 4.23265C7.78346 4.22822 4.31578 7.67499 4.31578 11.9158C4.31578 13.3664 4.72138 14.7815 5.49693 16.0058L5.67968 16.2986L4.89967 19.1332L7.82358 18.3702Z" fill="white"/>
<path d="M2.99194 21.0097L4.2667 16.383C3.47778 15.03 3.06326 13.4907 3.06326 11.9204C3.06772 6.99643 7.09255 2.99072 12.04 2.99072C14.4424 2.99072 16.6933 3.92228 18.387 5.60796C20.0808 7.29364 21.0123 9.53825 21.0123 11.9248C21.0123 16.8488 16.983 20.8545 12.04 20.8545H12.0356C10.5335 20.8545 9.05816 20.4774 7.74775 19.7677L2.99194 21.0097Z" fill="#0081C9"/>
<path d="M2.66663 21.3334L3.98595 16.5425C3.17029 15.1363 2.7424 13.5438 2.74686 11.9158C2.74686 6.8144 6.91877 2.66675 12.0401 2.66675C14.5272 2.66675 16.8627 3.62936 18.6144 5.37714C20.3705 7.12492 21.3377 9.44939 21.3333 11.9202C21.3333 17.0216 17.1614 21.1693 12.0356 21.1693H12.0312C10.4756 21.1693 8.94679 20.7789 7.58735 20.0425L2.66663 21.3334ZM7.82358 18.3702L8.10438 18.5387C9.28999 19.2396 10.6494 19.6078 12.0356 19.6122H12.0401C16.2967 19.6122 19.7644 16.1655 19.7644 11.9247C19.7644 9.8708 18.9621 7.94115 17.5046 6.48614C16.0471 5.03113 14.1037 4.23265 12.0401 4.23265C7.78346 4.22822 4.31578 7.67499 4.31578 11.9158C4.31578 13.3664 4.72138 14.7815 5.49693 16.0058L5.67968 16.2986L4.89967 19.1332L7.82358 18.3702Z" fill="white"/>
<path fill-rule="evenodd" clip-rule="evenodd" d="M9.71791 8.04772C9.54408 7.66179 9.36133 7.65292 9.19642 7.64848C9.0627 7.64404 8.9067 7.64404 8.7507 7.64404C8.5947 7.64404 8.3451 7.70171 8.13115 7.93238C7.91721 8.16305 7.31995 8.72199 7.31995 9.86204C7.31995 10.9977 8.15344 12.0978 8.26932 12.253C8.38521 12.4083 9.87836 14.817 12.2362 15.7442C14.1974 16.516 14.5985 16.3608 15.0219 16.3209C15.4454 16.2809 16.3948 15.7619 16.5909 15.2207C16.7825 14.6795 16.7825 14.2182 16.7246 14.1206C16.6666 14.023 16.5106 13.9653 16.2789 13.85C16.0471 13.7347 14.9061 13.1757 14.6921 13.0959C14.4782 13.0205 14.3222 12.9805 14.1706 13.2112C14.0146 13.4419 13.5689 13.9609 13.4352 14.1162C13.3015 14.2714 13.1633 14.2892 12.9315 14.1738C12.6998 14.0585 11.951 13.8145 11.064 13.0249C10.3731 12.4127 9.90511 11.6542 9.77139 11.4235C9.63768 11.1928 9.75802 11.0686 9.87391 10.9533C9.97642 10.8513 10.1057 10.6827 10.2216 10.5496C10.3375 10.4165 10.3776 10.3189 10.4533 10.1637C10.5291 10.0084 10.4935 9.87535 10.4355 9.76001C10.3776 9.64911 9.92294 8.50463 9.71791 8.04772Z" fill="white"/>
</svg>
